<svg xmlns="http://www.w3.org/2000/svg" width="16" height="26" viewBox="0 0 16 26" fill="none">
<path d="M1.93506 0.697933C1.5714 0.689935 1.21429 0.795354 0.913368 0.999697C0.612446 1.20404 0.382668 1.49721 0.25598 1.83818C0.129293 2.17915 0.111991 2.55106 0.206479 2.90232C0.300967 3.25358 0.50255 3.56653 0.783203 3.79792L11.4917 12.9717L0.783203 22.1423C0.589061 22.285 0.426472 22.4662 0.305618 22.6746C0.184764 22.883 0.108248 23.1142 0.0808619 23.3536C0.0534756 23.593 0.0758094 23.8354 0.146464 24.0657C0.217119 24.2961 0.334572 24.5094 0.49147 24.6923C0.648368 24.8751 0.841329 25.0234 1.05827 25.1283C1.27521 25.2331 1.51146 25.292 1.75222 25.3013C1.99298 25.3105 2.23306 25.2702 2.45743 25.1824C2.6818 25.0946 2.88563 24.9614 3.05615 24.7912L15.3164 14.3013C15.5089 14.137 15.6635 13.9331 15.7696 13.7032C15.8756 13.4734 15.9305 13.2232 15.9305 12.9701C15.9305 12.717 15.8756 12.4668 15.7696 12.237C15.6635 12.0072 15.5089 11.803 15.3164 11.6387L3.05615 1.13877C2.74644 0.863675 2.34919 0.707276 1.93506 0.69753V0.697933Z" fill="#A7A7A7"/>
</svg>