<svg xmlns="http://www.w3.org/2000/svg" width="16" height="26" viewBox="0 0 16 26" fill="none">
<path d="M14.0649 25.2532C14.4286 25.2612 14.7857 25.1558 15.0866 24.9515C15.3876 24.7471 15.6173 24.454 15.744 24.113C15.8707 23.772 15.888 23.4001 15.7935 23.0489C15.699 22.6976 15.4975 22.3846 15.2168 22.1532L4.5083 12.9794L15.2168 3.80885C15.4109 3.66616 15.5735 3.48501 15.6944 3.27658C15.8152 3.06814 15.8918 2.83693 15.9191 2.59756C15.9465 2.35818 15.9242 2.11578 15.8535 1.88544C15.7829 1.65509 15.6654 1.44175 15.5085 1.2589C15.3516 1.07605 15.1587 0.927725 14.9417 0.822905C14.7248 0.718082 14.4885 0.659208 14.2478 0.649919C14.007 0.640631 13.7669 0.681015 13.5426 0.768808C13.3182 0.856601 13.1144 0.989774 12.9438 1.15999L0.683595 11.6499C0.491062 11.8142 0.336457 12.0181 0.230444 12.2479C0.124431 12.4778 0.0695335 12.7279 0.0695335 12.981C0.0695334 13.2342 0.124431 13.4843 0.230444 13.7142C0.336457 13.944 0.491062 14.1481 0.683595 14.3124L12.9438 24.8124C13.2536 25.0875 13.6508 25.2439 14.0649 25.2536L14.0649 25.2532Z" fill="#A7A7A7"/>
</svg>