<svg width="38" height="10" viewBox="0 0 38 10" fill="none" xmlns="http://www.w3.org/2000/svg">
<path d="M13.9972 9.58058C13.9733 9.56489 13.9653 9.50406 13.9713 9.37849L13.9793 9.19799L14.0731 9.17837C14.125 9.16856 14.2347 9.14698 14.3185 9.13128C14.576 9.08419 14.7256 8.94489 14.8095 8.67609C14.8773 8.45634 14.9072 7.75198 14.9092 6.33932C14.9112 4.61078 14.8753 4.20268 14.6957 3.97116C14.5999 3.84559 14.5301 3.81027 14.2966 3.76711C14.1808 3.74553 14.0591 3.72198 14.0272 3.71413C13.9733 3.70432 13.9673 3.68667 13.9673 3.55717C13.9673 3.42768 13.9753 3.41002 14.0272 3.38844C14.107 3.35705 16.7512 2.83711 16.835 2.83711H16.9009L16.8869 3.22363C16.8809 3.43553 16.8689 3.74553 16.863 3.9123L16.851 4.21445L16.9468 4.04572C17.2541 3.50224 17.5973 3.16477 18.0543 2.95876C18.3058 2.84496 18.4734 2.8116 18.7827 2.8116C19.1499 2.8116 19.5171 2.92932 19.5171 3.04705C19.5171 3.12553 18.8686 4.80894 18.8326 4.82268C18.8147 4.82856 18.689 4.78147 18.5513 4.71673C18.2659 4.58135 17.9965 4.51464 17.737 4.5166C17.4118 4.5166 17.0505 4.63432 16.9069 4.7854C16.847 4.85015 16.845 4.85407 16.831 5.81742C16.8151 6.77097 16.849 7.93641 16.9029 8.40533C16.9488 8.80362 17.0565 8.99982 17.28 9.09204C17.3539 9.12343 17.8248 9.18622 17.9765 9.18622C17.9885 9.18622 17.9945 9.27843 17.9905 9.39027L17.9825 9.59432L16.0068 9.6002C14.9212 9.60413 14.0172 9.59628 13.9972 9.58451M0.842086 9.59039C0.820134 9.58254 0.80816 9.51584 0.80816 9.39615C0.80816 9.17837 0.794191 9.18818 1.22125 9.1097C1.54854 9.05084 1.66628 8.98805 1.81196 8.80166C2.09334 8.43869 2.15321 7.74217 2.15321 4.87173C2.15321 2.17591 2.10132 1.60888 1.80996 1.19293C1.68025 1.0085 1.46472 0.906479 1.09952 0.865277L0.820134 0.831922L0.812151 0.6161L0.804169 0.400277L0.891976 0.384581C0.939871 0.376733 2.63615 0.372809 4.66171 0.376733L8.34364 0.384581L8.3616 0.488568C8.37158 0.545467 8.38555 1.138 8.39552 1.80509L8.41348 3.01565L8.2239 3.07255C7.93853 3.15692 7.94052 3.15888 7.81081 2.82534C7.4955 2.00325 7.13229 1.5304 6.63738 1.29104C6.29613 1.12623 6.13847 1.10661 5.17259 1.10661H4.33243L4.31846 1.24395C4.29052 1.50293 4.24862 3.16281 4.24862 3.94565V4.72654H4.49607C4.63178 4.72458 4.89919 4.71477 5.09077 4.70299C5.37814 4.68534 5.46395 4.6716 5.58369 4.61666C5.87904 4.48128 6.0806 4.18502 6.20433 3.70236L6.26819 3.45318L6.48571 3.44534L6.70323 3.43749V6.59046L6.48571 6.58261L6.26819 6.57476L6.20632 6.32559C6.09058 5.85666 5.86707 5.52116 5.58968 5.40147C5.46196 5.34654 5.14665 5.31514 4.53599 5.29552L4.24862 5.28768V5.88021C4.24862 6.52571 4.28454 7.39881 4.33044 7.87166C4.3943 8.53286 4.56592 8.8978 4.87524 9.02925C4.93312 9.05476 5.1207 9.09596 5.28834 9.11951C5.45796 9.14501 5.61562 9.17444 5.64156 9.18818C5.70742 9.22153 5.71141 9.56292 5.64555 9.58843C5.59566 9.60805 0.885989 9.60609 0.838094 9.58843M34.4963 9.74539C34.0213 9.69438 33.265 9.53153 33.0115 9.42558L32.8878 9.37261L32.8719 8.77419C32.8619 8.44457 32.8519 8.00312 32.8479 7.79514L32.8419 7.41451L32.9158 7.37919C32.9557 7.35957 33.0375 7.34191 33.0974 7.33995L33.2051 7.33407L33.2969 7.55774C33.6561 8.42691 34.0792 8.8978 34.628 9.03906C34.8375 9.094 35.2327 9.094 35.3883 9.03906C35.8234 8.88799 36.0629 8.56425 36.0649 8.12084C36.0669 7.59698 35.7735 7.34388 34.6659 6.91812C33.9794 6.65521 33.74 6.51786 33.4546 6.23141C33.1473 5.92141 32.9996 5.57021 32.9716 5.07774C32.9377 4.48521 33.1273 3.98489 33.5444 3.55913C33.9655 3.13141 34.5123 2.89793 35.2566 2.83122C35.9132 2.77236 36.919 2.9097 37.4458 3.12945L37.5416 3.17065L37.5596 3.70432C37.5696 3.99863 37.5795 4.39103 37.5815 4.57939L37.5855 4.92078L37.4558 4.96787C37.2523 5.04242 37.2383 5.03261 37.1245 4.73635C36.8052 3.90641 36.436 3.51401 35.8593 3.39432C35.5081 3.32173 35.2147 3.40021 35.0012 3.62388C34.8356 3.7985 34.7697 3.9535 34.7537 4.21445C34.7358 4.49698 34.7877 4.65002 34.9633 4.83837C35.1808 5.07185 35.534 5.27198 36.2405 5.56236C37.1066 5.91749 37.5197 6.21964 37.7432 6.66109C37.8889 6.94755 37.9308 7.1771 37.9148 7.6166C37.9048 7.94622 37.8928 8.01489 37.817 8.2366C37.5676 8.96058 37.0048 9.43735 36.1347 9.65906C35.8394 9.73558 35.7974 9.73754 35.2127 9.74539C34.8755 9.74932 34.5502 9.74539 34.4923 9.74147L34.4963 9.74539ZM29.9962 5.44268L30.4611 5.42698L30.4452 5.10325C30.3853 3.95939 30.1019 3.33546 29.6389 3.33546C29.138 3.33546 28.7369 3.9692 28.5693 5.02673C28.5493 5.15622 28.5314 5.31122 28.5314 5.36812V5.47407L29.0323 5.46622C29.3077 5.4623 29.7407 5.45052 29.9982 5.44268M29.16 9.71989C27.8369 9.48444 26.889 8.56229 26.5797 7.20457C26.5397 7.02995 26.5218 6.83375 26.5118 6.45704C26.4958 5.85862 26.5457 5.4878 26.7034 5.02673C27.0047 4.14185 27.5455 3.51401 28.3298 3.1373C29.158 2.74097 30.2895 2.7135 31.0219 3.07451C31.8481 3.48065 32.333 4.29293 32.4568 5.47211C32.4727 5.63103 32.4827 5.81938 32.4787 5.89198L32.4707 6.02343L30.4951 6.02932L28.5194 6.03521L28.5274 6.26476C28.5453 6.79647 28.6611 7.2654 28.8766 7.67546C28.9744 7.86185 29.0522 7.96191 29.2418 8.15027C29.6689 8.57406 30.0939 8.73691 30.7625 8.73691C31.2474 8.73691 31.5967 8.64077 31.9638 8.40925C32.0656 8.34451 32.1694 8.29153 32.1933 8.29153C32.2492 8.29153 32.3769 8.45438 32.3769 8.52501C32.3769 8.64077 31.9938 9.01356 31.6206 9.26077C31.3153 9.46482 30.8303 9.64729 30.4093 9.71989C30.1159 9.7709 29.4534 9.76894 29.162 9.71792M22.5605 9.20976C22.754 9.17444 22.9057 9.09792 23.0674 8.9547C23.4725 8.59565 23.7778 7.85596 23.8975 6.94166C23.9454 6.56888 23.9394 5.71736 23.8856 5.4054C23.7399 4.56369 23.4246 4.00844 22.9656 3.78673C22.776 3.69451 22.7461 3.68667 22.5206 3.68667C22.3589 3.68667 22.2212 3.70432 22.1015 3.73768L21.9239 3.78869L21.9099 4.74812C21.8939 5.97635 21.9338 9.05084 21.9678 9.13913C21.9897 9.19603 22.0137 9.2078 22.1214 9.21565C22.3749 9.23527 22.4168 9.23527 22.5585 9.2078M21.4888 9.7297C21.2234 9.70419 20.4152 9.57077 20.1318 9.50799L19.9362 9.46482L19.9522 8.43868C19.9881 5.96654 19.9941 4.61863 19.9701 3.30603C19.9482 2.02091 19.9402 1.88553 19.8903 1.69521C19.8265 1.45388 19.7347 1.28711 19.6229 1.20863C19.579 1.1792 19.4633 1.13604 19.3635 1.11445C19.0322 1.04186 19.0502 1.05167 19.0402 0.904517C19.0342 0.818188 19.0442 0.761289 19.0661 0.743631C19.0981 0.720087 21.8241 0.209961 21.9099 0.209961C21.9338 0.209961 21.9378 0.553315 21.9259 1.73249C21.9179 2.57027 21.9159 3.25306 21.9239 3.25306C21.9318 3.25306 22.0316 3.20989 22.1454 3.15888C22.4886 3.00192 22.8059 2.93521 23.2669 2.91951C23.5742 2.9097 23.7159 2.91559 23.8736 2.94698C24.9013 3.15692 25.6617 3.98293 25.9291 5.18173C25.9989 5.49369 26.0249 6.27065 25.977 6.65913C25.9371 6.99071 25.8253 7.43805 25.7096 7.72647C25.2705 8.82128 24.3266 9.53349 23.0753 9.71989C22.788 9.76305 21.882 9.76697 21.4948 9.7297H21.4888ZM10.9958 9.22153C11.1854 9.1666 11.4169 8.95077 11.5426 8.71729C11.8001 8.23463 11.9138 7.52046 11.9158 6.38837C11.9198 4.96787 11.6943 4.06534 11.2153 3.59249C11.0138 3.39432 10.8721 3.33154 10.6147 3.3335C10.0459 3.3335 9.6847 3.91818 9.54101 5.06989C9.47516 5.59964 9.47516 6.85926 9.54101 7.32229C9.74457 8.75457 10.2654 9.43735 10.9958 9.22349M10.0279 9.73362C9.38136 9.64141 8.8146 9.37261 8.38355 8.95077C8.02234 8.59957 7.78885 8.21305 7.61723 7.68527C7.34782 6.85926 7.34782 5.7978 7.61723 4.98749C7.87666 4.20464 8.46337 3.52186 9.1818 3.16673C10.1756 2.67622 11.5765 2.70762 12.4965 3.23932C13.3247 3.72002 13.8276 4.57154 13.9673 5.73502C14.0092 6.09014 13.9813 6.8416 13.9154 7.1516C13.64 8.42103 12.8398 9.3059 11.6664 9.63944C11.5406 9.67476 11.3451 9.71792 11.2313 9.73362C10.9918 9.76697 10.2614 9.76501 10.0299 9.73362" fill="black"/>
</svg>
